<?xml version="1.0" encoding="UTF-8"?>
<svg width="1379.5" height="586.56" version="1.1" viewBox="0 0 5517.9 2346.2" xmlns="http://www.w3.org/2000/svg" xmlns:cc="http://creativecommons.org/ns#" xmlns:dc="http://purl.org/dc/elements/1.1/" xmlns:rdf="http://www.w3.org/1999/02/22-rdf-syntax-ns#">
<metadata>
<rdf:RDF>
<cc:Work rdf:about="">
<dc:format>image/svg+xml</dc:format>
<dc:type rdf:resource="http://purl.org/dc/dcmitype/StillImage"/>
<dc:title/>
</cc:Work>
</rdf:RDF>
</metadata>
<g transform="translate(364.43 453.32)">
<g transform="matrix(1.0053 0 0 1.0053 -8.5586 -.03056)">
<g transform="matrix(.58891 0 0 .58891 3172.6 351.25)" shape-rendering="auto">
<path d="m-3681.3-1361.5c-26.487 0.01-52.5 7.2361-76.616 17.819-27.059 11.794-52.254 27.729-74.806 46.75-28.18 23.392-54.038 49.593-76.87 78.235-18.704 23.357-35.337 48.341-50.002 74.417-14.357 25.393-27.168 51.713-37.451 79.026-7.6723 20.71-14.735 41.64-22.068 62.47-2.689 8.0866-4.7827 17.031-2.0683 25.397 2.109 6.5382 7.8286 11.964 14.733 12.962 5.5154 0.97428 11.149 0.62454 16.711 1.1315 17.172 0.91367 34.367 1.4506 51.564 1.2606 24.842-5e-3 49.684-0.58577 74.526-0.24834 27.798-0.0718 55.6-0.49533 83.394 0.22436 36.667 0.77222 73.343 0.83028 110.02 1.1957 44.423 0.33041 88.845 0.67288 133.27 1.0203-12.275-27.371-30.017-51.725-46.686-76.504-22.305-32.363-45.827-64.091-64.13-98.982-14.059-33.517-21.324-69.487-25.107-105.52-1.6839-18.226-2.5213-36.728 0.4102-54.871 4.1809-17.438 15.429-32.652 29.702-43.263 6.7606-6.0289 13.456-12.13 20.149-18.234-1.7165-3.066-5.7002-3.3883-8.8262-2.9629-16.608-0.6168-33.217-1.3786-49.84-1.3261z" color="#000000" color-rendering="auto" dominant-baseline="auto" image-rendering="auto" solid-color="#000000" stop-color="#000000" style="font-feature-settings:normal;font-variant-alternates:normal;font-variant-caps:normal;font-variant-east-asian:normal;font-variant-ligatures:normal;font-variant-numeric:normal;font-variant-position:normal;font-variation-settings:normal;inline-size:0;isolation:auto;mix-blend-mode:normal;shape-margin:0;shape-padding:0;text-decoration-color:#000000;text-decoration-line:none;text-decoration-style:solid;text-indent:0;text-orientation:mixed;text-transform:none;white-space:normal"/>
<path d="m-3681.3-1362c-26.577 0.01-52.655 7.2596-76.814 17.861-27.106 11.815-52.342 27.778-74.93 46.828-28.203 23.413-54.084 49.636-76.937 78.305-18.722 23.38-35.37 48.385-50.047 74.482-14.368 25.411-27.188 51.753-37.482 79.096-7.6757 20.719-14.739 41.652-22.07 62.479-2.6993 8.1176-4.8384 17.171-2.0684 25.709 2.1651 6.712 8.0161 12.273 15.135 13.303 5.5885 0.985 11.232 0.63284 16.738 1.1348l0.01 2e-3h0.01c17.179 0.91406 34.384 1.4519 51.596 1.2617 24.848-5e-3 49.686-0.58528 74.514-0.24804 27.802-0.0718 55.599-0.49668 83.379 0.22265 36.673 0.77236 73.35 0.83191 110.02 1.1973 44.423 0.33041 88.845 0.67213 133.27 1.0195l0.7793 6e-3 -0.3184-0.71094c-12.304-27.434-30.066-51.81-46.728-76.578-22.309-32.368-45.813-64.077-64.092-98.918-14.025-33.447-21.281-69.357-25.06-105.34v-0.01c-1.6816-18.202-2.5126-36.655 0.4043-54.723 4.1526-17.296 15.322-32.413 29.508-42.959l0.019-0.014 0.016-0.014c6.7632-6.0313 13.461-12.134 20.154-18.238l0.293-0.2676-0.1953-0.3457c-0.9351-1.6704-2.5029-2.5972-4.1953-3.0313-1.6676-0.4276-3.4698-0.3976-5.0606-0.1875-16.6-0.6165-33.211-1.3786-49.846-1.3261zm0 1c16.607-0.053 33.21 0.7092 49.82 1.3261h0.043l0.043-0.01c1.5182-0.2066 3.2399-0.2271 4.75 0.1602 1.3793 0.3537 2.5197 1.0866 3.3106 2.2637-6.573 5.9941-13.148 11.984-19.785 17.902-14.339 10.672-25.646 25.964-29.855 43.522v0.038c-2.9425 18.211-2.0995 36.755-0.4141 54.996 3.7869 36.061 11.058 72.08 25.143 105.66l0.01 0.019 0.01 0.02c18.327 34.937 41.864 66.68 64.162 99.033 16.529 24.569 34.067 48.7 46.301 75.715-44.156-0.34525-88.311-0.68525-132.47-1.0137-36.675-0.36541-73.35-0.42519-110.01-1.1973v2e-3c-27.804-0.71997-55.609-0.29644-83.4-0.2246-24.854-0.3376-49.699 0.2427-74.533 0.24804-17.177 0.18977-34.356-0.34711-51.514-1.2598h-0.02c-5.6061-0.50908-11.219-0.16555-16.65-1.125l-0.01-2e-3h-0.01c-6.6889-0.96664-12.275-6.2574-14.328-12.621v-2e-3c-2.658-8.1925-0.613-17.023 2.0644-25.076v-0.01c7.3334-20.832 14.395-41.755 22.062-62.453 10.272-27.284 23.071-53.579 37.418-78.953 14.652-26.054 31.271-51.013 49.957-74.348 22.81-28.614 48.645-54.791 76.799-78.162 22.518-18.991 47.672-34.9 74.684-46.674 24.072-10.563 50.02-17.77 76.416-17.777z" color="#000000" color-rendering="auto" dominant-baseline="auto" image-rendering="auto" solid-color="#000000" stop-color="#000000" style="font-feature-settings:normal;font-variant-alternates:normal;font-variant-caps:normal;font-variant-east-asian:normal;font-variant-ligatures:normal;font-variant-numeric:normal;font-variant-position:normal;font-variation-settings:normal;inline-size:0;isolation:auto;mix-blend-mode:normal;shape-margin:0;shape-padding:0;text-decoration-color:#000000;text-decoration-line:none;text-decoration-style:solid;text-indent:0;text-orientation:mixed;text-transform:none;white-space:normal"/>
</g>
<path d="m669.9-423.51c-15.065 4.0428-28.762 12.118-40.867 21.814-13.594 10.833-25.498 23.738-35.427 37.996-12.464 17.602-23.18 36.447-31.802 56.22-7.0796 16.138-12.733 32.884-17.101 49.953-4.2966 16.633-7.5724 33.557-9.2586 50.662-1.2077 12.95-2.0354 25.932-3.0318 38.899-0.29704 5.0098-0.12473 10.417 2.6946 14.762 2.1962 3.3978 6.2768 5.6126 10.356 5.1279 3.2859-0.28645 6.4374-1.3441 9.6782-1.9034 9.9072-2.0976 19.771-4.4131 29.524-7.1424 14.131-3.7893 28.173-7.9061 42.356-11.501 15.802-4.2778 31.552-8.7564 47.472-12.583 20.975-5.1495 41.847-10.707 62.764-16.088 25.32-6.583 50.641-13.159 75.964-19.732-11.155-13.699-24.959-24.848-38.218-36.403-17.621-15.01-35.837-29.473-51.567-46.531-13.106-16.923-22.721-36.277-30.365-56.195-3.7358-10.111-7.0323-20.508-8.1302-31.275-0.27961-10.557 3.7997-20.926 10.302-29.137 2.9268-4.4599 5.8056-8.9509 8.6824-13.443-1.4437-1.4824-3.7589-1.0586-5.4723-0.34009-9.5411 2.1805-19.105 4.2787-28.553 6.8423z" stroke-width=".58891"/>
<path d="m346.93-309.15c-13.506 7.8043-24.645 19.149-33.828 31.648-10.327 13.983-18.485 29.528-24.386 45.87-7.4839 20.228-12.957 41.204-16.168 62.535-2.6617 17.42-3.7882 35.059-3.5892 52.676 0.1547 17.178 1.371 34.374 4.1691 51.332 2.1853 12.822 4.7458 25.575 7.1395 38.359 1.0097 4.916 2.5756 10.094 6.4234 13.562 3.0008 2.7135 7.5156 3.7967 11.331 2.2727 3.0998-1.1271 5.8701-2.9644 8.8558-4.3434 9.0267-4.5903 17.955-9.3797 26.67-14.54 12.668-7.3175 25.167-14.928 37.936-22.071 14.156-8.2217 28.211-16.624 42.598-24.441 18.928-10.403 37.65-21.173 56.461-31.785 22.753-12.912 45.51-25.818 68.268-38.721-14.32-10.345-30.54-17.542-46.337-25.271-20.905-9.9376-42.244-19.193-61.853-31.599-17.039-12.954-31.336-29.16-43.875-46.422-6.2254-8.7995-12.101-17.989-15.948-28.106-3.0024-10.125-1.7457-21.196 2.4094-30.811 1.6727-5.0655 3.2911-10.148 4.9072-15.232-1.7782-1.0583-3.9048-0.0495-5.3738 1.0878-8.6516 4.5756-17.347 9.0777-25.809 13.999z" stroke-width=".58891"/>
<path d="m1338.9-388.56c-15.068-4.0315-30.967-3.886-46.299-1.5419-17.19 2.5846-33.95 7.809-49.679 15.191-19.595 9.0114-38.298 19.974-55.651 32.787-14.2 10.436-27.469 22.112-39.786 34.71-12.037 12.256-23.336 25.275-33.349 39.245-7.521 10.611-14.729 21.44-22.075 32.172-2.7622 4.1901-5.3164 8.9588-5.0476 14.132 0.2031 4.0406 2.6296 7.9991 6.4049 9.619 2.9889 1.3948 6.247 2.0546 9.3333 3.1907 9.6287 3.137 19.328 6.0634 29.14 8.5766 14.132 3.7836 28.352 7.2397 42.431 11.218 15.824 4.1962 31.703 8.1929 47.403 12.839 20.74 6.0281 41.594 11.651 62.399 17.449 25.219 6.9589 50.436 13.925 75.653 20.893-2.8107-17.441-9.1909-33.999-14.896-50.634-7.7553-21.809-16.3-43.442-21.393-66.08-2.8884-21.209-1.5385-42.777 1.801-63.849 1.82-10.624 4.1638-21.277 8.5968-31.151 5.0362-9.2822 13.753-16.222 23.49-20.083 4.7647-2.399 9.5033-4.8489 14.241-7.3008-0.5091-2.0057-2.726-2.7962-4.5691-3.0308-9.3531-2.8822-18.685-5.8471-28.149-8.351z" stroke-width=".58891"/>
<path d="m67.875-116.63c-11.026 11.034-18.849 24.876-24.485 39.325-6.3565 16.179-10.212 33.307-11.683 50.619-1.9935 21.476-1.8509 43.154 0.56847 64.589 1.9376 17.515 5.415 34.845 10.167 51.81 4.5955 16.553 10.221 32.848 17.313 48.504 5.4293 11.819 11.203 23.476 16.824 35.204 2.2477 4.4872 5.1004 9.0836 9.7146 11.437 3.6009 1.8444 8.2422 1.7222 11.533-0.73737 2.7024-1.891 4.9028-4.3827 7.4299-6.4875 7.5311-6.7702 14.915-13.707 21.997-20.948 10.343-10.347 20.446-20.933 30.931-31.138 11.546-11.605 22.947-23.359 34.82-34.633 15.59-14.947 30.887-30.196 46.311-45.315 18.636-18.361 37.277-36.717 55.92-55.071-16.51-6.2862-34.039-9.0398-51.299-12.417-22.765-4.1883-45.772-7.6055-67.924-14.513-19.812-8.103-37.816-20.056-54.395-33.484-8.2908-6.8883-16.344-14.244-22.679-23.02-5.5205-9.0026-7.1721-20.022-5.6471-30.384 0.3047-5.3258 0.5524-10.654 0.79768-15.983-1.9915-0.56199-3.7846 0.96269-4.9092 2.4416-7.1726 6.6589-14.406 13.258-21.307 20.202z" stroke-width=".58891"/>
<path d="m-150.28 140.47c-7.7941 13.512-11.768 28.906-13.472 44.322-1.9525 17.273-1.2442 34.815 1.816 51.918 3.6327 21.26 9.3812 42.163 17.266 62.241 6.4048 16.417 14.249 32.256 23.23 47.414 8.7231 14.799 18.374 29.083 29.276 42.37 8.3032 10.011 16.898 19.776 25.362 29.65 3.3325 3.7525 7.2776 7.454 12.344 8.5331 3.9555 0.84956 8.4071-0.46971 10.949-3.6971 2.1209-2.526 3.6014-5.5023 5.4976-8.1894 5.5222-8.4887 10.859-17.1 15.826-25.927 7.3124-12.671 14.331-25.512 21.818-38.082 8.1485-14.198 16.119-28.503 24.67-42.465 11.191-18.473 22.02-37.161 33.004-55.757 13.249-22.559 26.504-45.114 39.762-67.667-17.574-1.799-35.219 0.0783-52.765 1.2835-23.073 1.8464-46.181 4.5003-69.365 3.5612-21.234-2.6993-41.718-9.5855-61.208-18.265-9.7911-4.5079-19.474-9.5289-27.864-16.366-7.6625-7.267-12.11-17.483-13.319-27.887-1.0841-5.2232-2.2241-10.434-3.3663-15.645-2.0691-0.0271-3.4065 1.9095-4.11 3.629-5.2048 8.2884-10.484 16.535-15.352 25.028z" stroke-width=".58891"/>
<path d="m-294.4 443.61c-4.0314 15.068-3.886 30.967-1.5419 46.299 2.5847 17.19 7.809 33.951 15.191 49.679 9.0114 19.595 19.974 38.298 32.787 55.651 10.436 14.2 22.112 27.469 34.71 39.786 12.256 12.037 25.275 23.336 39.245 33.349 10.611 7.5209 21.44 14.729 32.172 22.075 4.1901 2.7622 8.9589 5.3164 14.132 5.0476 4.0407-0.20312 7.9991-2.6296 9.619-6.405 1.3949-2.9889 2.0546-6.2469 3.1908-9.3332 3.1371-9.6287 6.0634-19.328 8.5766-29.14 3.7836-14.132 7.2396-28.352 11.218-42.431 4.1961-15.823 8.1929-31.703 12.839-47.403 6.028-20.74 11.651-41.594 17.449-62.399 6.9589-25.219 13.925-50.436 20.893-75.653-17.441 2.8107-33.999 9.191-50.634 14.896-21.809 7.7553-43.442 16.3-66.08 21.393-21.209 2.8884-42.777 1.5385-63.849-1.8009-10.624-1.8201-21.277-4.1639-31.15-8.5968-9.2822-5.0362-16.222-13.753-20.083-23.49-2.399-4.7646-4.8488-9.5033-7.3008-14.241-2.0057 0.50911-2.7963 2.726-3.0307 4.5691-2.8822 9.3531-5.8472 18.685-8.351 28.149z" stroke-width=".58891"/>
<path d="m-353.98 773.47c6e-3 15.598 4.2614 30.918 10.494 45.12 6.9458 15.935 16.33 30.773 27.532 44.054 13.776 16.595 29.206 31.823 46.073 45.269 13.755 11.015 28.468 20.81 43.824 29.447 14.954 8.4551 30.454 16 46.539 22.055 12.196 4.5183 24.522 8.6778 36.789 12.996 4.7623 1.5836 10.03 2.8166 14.957 1.218 3.8504-1.242 7.0459-4.6103 7.6335-8.6763 0.57378-3.2481 0.36777-6.5658 0.66641-9.8411 0.53803-10.113 0.85421-20.239 0.74232-30.367-6e-3 -14.63-0.34498-29.259-0.14623-43.889-0.0424-16.37-0.29168-32.743 0.13215-49.111 0.4547-21.593 0.48892-43.193 0.70404-64.789 0.19464-26.161 0.39628-52.322 0.60093-78.483-16.119 7.229-30.462 17.677-45.054 27.494-19.059 13.136-37.744 26.988-58.292 37.767-19.738 8.2792-40.922 12.558-62.14 14.786-10.733 0.99166-21.629 1.4848-32.314-0.24157-10.269-2.4622-19.229-9.0861-25.478-17.492-3.5505-3.9814-7.1432-7.9245-10.738-11.866-1.8056 1.0109-1.9954 3.357-1.7448 5.1979-0.36329 9.7804-0.81192 19.562-0.78101 29.351z" stroke-width=".58891"/>
<path d="m-325.25 1109.9c4.0428 15.065 12.118 28.762 21.814 40.867 10.833 13.594 23.738 25.498 37.996 35.427 17.602 12.464 36.447 23.18 56.22 31.802 16.137 7.0796 32.884 12.733 49.953 17.1 16.633 4.2966 33.557 7.5724 50.662 9.2586 12.95 1.2077 25.932 2.0354 38.899 3.0318 5.0099 0.297 10.417 0.1247 14.762-2.6946 3.3977-2.1962 5.6126-6.2768 5.1279-10.356-0.28644-3.2859-1.3441-6.4373-1.9034-9.6782-2.0976-9.9072-4.4132-19.77-7.1425-29.524-3.7922-14.13-7.9061-28.173-11.5-42.356-4.2779-15.802-8.7564-31.552-12.583-47.472-5.1496-20.975-10.707-41.847-16.089-62.764-6.5829-25.32-13.159-50.641-19.732-75.964-13.699 11.155-24.848 24.959-36.403 38.218-15.01 17.621-29.473 35.837-46.531 51.567-16.923 13.106-36.277 22.721-56.195 30.365-10.111 3.7359-20.508 7.0323-31.275 8.1302-10.557 0.2796-20.926-3.7997-29.137-10.302-4.4599-2.9267-8.9508-5.8056-13.443-8.6824-1.4824 1.4437-1.0586 3.7589-0.34009 5.4723 2.1804 9.5411 4.2786 19.105 6.8422 28.553z" stroke-width=".58891"/>
<path d="m1645.3-241.63c-13.512-7.7941-28.906-11.768-44.322-13.472-17.273-1.9525-34.815-1.2442-51.918 1.816-21.26 3.6327-42.162 9.3812-62.241 17.266-16.417 6.4048-32.256 14.249-47.414 23.23-14.8 8.7231-29.083 18.374-42.37 29.276-10.011 8.3032-19.776 16.898-29.65 25.362-3.7526 3.3325-7.454 7.2776-8.5332 12.344-0.8496 3.9555 0.4697 8.4071 3.6971 10.949 2.5261 2.1209 5.5023 3.6015 8.1894 5.4976 8.4887 5.5222 17.1 10.859 25.927 15.826 12.671 7.3124 25.512 14.331 38.082 21.818 14.198 8.1486 28.502 16.119 42.465 24.67 18.473 11.191 37.161 22.02 55.757 33.004 22.559 13.249 45.114 26.504 67.667 39.762 1.7991-17.574-0.078-35.219-1.2834-52.765-1.8464-23.073-4.5004-46.181-3.5613-69.365 2.6992-21.234 9.5855-41.718 18.265-61.207 4.5079-9.7911 9.5289-19.474 16.366-27.864 7.267-7.6625 17.483-12.11 27.888-13.319 5.2232-1.0841 10.434-2.224 15.645-3.3663 0.027-2.0691-1.9094-3.4065-3.629-4.11-8.2884-5.2047-16.535-10.484-25.028-15.352z" stroke-width=".58891"/>
<path d="m-211.93 1425.6c7.8043 13.506 19.15 24.645 31.648 33.828 13.983 10.327 29.528 18.485 45.87 24.386 20.228 7.4839 41.204 12.957 62.535 16.168 17.42 2.6617 35.059 3.7882 52.676 3.5892 17.178-0.1547 34.374-1.371 51.332-4.1692 12.822-2.1852 25.576-4.7457 38.359-7.1393 4.9161-1.0098 10.094-2.5757 13.562-6.4236 2.7135-3.0007 3.7967-7.5155 2.2727-11.331-1.1272-3.0998-2.9644-5.87-4.3434-8.8558-4.5903-9.0267-9.3798-17.955-14.541-26.67-7.32-12.667-14.928-25.167-22.071-37.936-8.2219-14.156-16.624-28.211-24.441-42.598-10.403-18.928-21.173-37.65-31.785-56.461-12.912-22.753-25.818-45.51-38.721-68.268-10.345 14.32-17.542 30.54-25.271 46.337-9.9375 20.905-19.193 42.244-31.599 61.853-12.954 17.039-29.16 31.336-46.422 43.875-8.7994 6.2254-17.989 12.101-28.105 15.948-10.125 3.0024-21.196 1.7458-30.811-2.4093-5.0655-1.6727-10.148-3.2911-15.232-4.9072-1.0583 1.7782-0.0495 3.9048 1.0878 5.3737 4.5756 8.6517 9.0777 17.347 13.999 25.809z" stroke-width=".58891"/>
</g>
<path d="m84.352 1505.9a1075.1 1075.1 0 0 1 93.94-1423.7 1075.1 1075.1 0 0 1 1424.8-76.539l-669.24 841.35z" stroke-width=".90176"/>
</g>
<g transform="translate(364.43 453.32)">
<path d="m786.17 1800.1c-282.2-107.37-550.97-208.44-684-257.19-51.7-18.949-96.01-37.171-98.466-40.493-5.8028-7.8473-3.2498-37.387 3.94-45.589 3.0768-3.5099 9.243-13.644 13.703-22.521 7.7141-15.355 8.8855-16.066 24.082-14.616 16.797 1.6018 18.06 0.7633 38.876-25.807 7.257-9.2635 9.6713-16.926 9.1914-29.173-0.358-9.1354-2.1527-17.538-3.9883-18.672-1.8357-1.1345-3.3375-5.3639-3.3375-9.3987 0-9.2233-8.6349-12.665-24.044-9.5831-7.4441 1.4888-11.956 0.7404-11.956-1.9832 0-2.406-2.25-3.5303-5-2.4984-9.0059 3.379-20.047-30.536-11.634-35.736 1.8516-1.1444 3.4578-11.091 3.5693-22.103 0.167-16.491-1.1833-20.462-7.6558-22.517-5.4527-1.7306-7.0002-4.5266-5.0549-9.1328 5.58-13.213 6.4391-23.756 2.1516-26.406-7.6575-4.7325-4.7197-10.233 5.4656-10.233 11.011 0 12.818-1.7387 31.178-30 9.1966-14.156 13.402-25.844 14.392-40 0.7694-11 2.9022-21.847 4.7394-24.104 1.8372-2.2572 2.435-9.4572 1.3285-16-1.1065-6.5429-2.6328-24.398-3.3918-39.679-1.2803-25.776-0.5386-28.804 10.266-41.911 6.4051-7.7706 11.673-17.768 11.707-22.217 0.089-11.718 3.8882-16.09 23.163-26.651 9.4731-5.1906 20.479-11.282 24.458-13.536 11.611-6.5784 36.318-33.538 36.318-39.63 0-6.6718-49.033-46.55-59.015-47.996-4.9823-0.72196-7.684-6.0682-9.422-18.644-1.3401-9.6974-6.2901-25.195-11-34.438-4.7098-9.2438-8.5633-19.524-8.5633-22.845 0-3.3213-6.75-13.066-15-21.654-26.633-27.726-33.374-42.532-33.472-73.514-0.048-15.227 1.9547-30.146 4.4507-33.154 3.5281-4.2511 2.6751-6.4654-3.8321-9.9479-9.4718-5.0692-7.3692-12.078 3.6233-12.078 4.0136 0 8.2535-3.6559 9.422-8.1242 3.601-13.77-7.2403-68.895-18.301-93.054-9.5421-20.843-12.39-46.656-5.8668-53.179 1.1585-1.1585 0.2292-7.852-2.0652-14.875-2.2943-7.0226-5.0612-15.468-6.1486-18.768-4.8621-14.756-2.756-54.106 3.151-58.873 4.1069-3.3138 4.4565-4.9135 1.0927-5-7.3576-0.18922-15.663-23.301-17.85-49.673l-1.9309-23.285 17.716-7.5942c24.15-10.352 46.148-13.356 60.686-8.2882 7.4784 2.607 13.041 2.789 14.472 0.47352 1.2785-2.0686 4.8454-3.7611 7.9266-3.7611 6.1992 0 25.853 19.584 26.052 25.959 0.069 2.2225 4.6298 7.3207 10.135 11.329 13.546 9.8641 29.818 4.518 35.118-11.538 2.1333-6.4625 8.0958-18.464 13.25-26.671 9.3356-14.864 9.3712-15.42 9.3712-146.4v-131.48l36.614-2.599c47.517-3.3729 670-3.3421 1054 0.052153l299.9 2.6511 1.8792 1886.7-574.35-0.266z" fill="#4039a8" stroke="#4039a8"/>
<text transform="matrix(6.6548 0 0 6.6548 26783 -390.2)" fill="#ffffff" font-family="sans-serif" font-size="40px" word-spacing="0px" style="line-height:1.25;shape-inside:url(#rect1141);white-space:pre" xml:space="preserve"><tspan x="-3963.668" y="234.89315"><tspan fill="#ffffff" font-family="'Playfair Display'" font-size="112px" font-weight="bold">AZ</tspan></tspan></text>
<text x="2180.4351" y="785.23389" font-family="sans-serif" font-size="40px" word-spacing="0px" style="line-height:1.25" xml:space="preserve"><tspan x="2180.4351" y="785.23389"/></text>
<text transform="matrix(6.6548 0 0 6.6548 28038 -558.51)" fill="#ffffff" font-family="sans-serif" font-size="40px" word-spacing="0px" style="line-height:0.85;shape-inside:url(#rect1141-1);white-space:pre" xml:space="preserve"><tspan x="-3963.668" y="212.49315"><tspan fill="#000000" font-family="'Playfair Display'" font-size="112px" font-weight="bold">Web
</tspan></tspan><tspan x="-3963.668" y="307.69316"><tspan fill="#000000" font-family="'Playfair Display'" font-size="112px" font-weight="bold">Workshop</tspan></tspan></text>
</g>
</svg>
